<svg width="50" height="50" viewBox="0 0 50 50" fill="none" xmlns="http://www.w3.org/2000/svg">
<g clip-path="url(#clip0_1_2)">
<path d="M16.2812 0.0312565C16.1523 0.054694 16.0195 0.0781315 15.9062 0.156257C15.4492 0.464851 15.3477 1.10548 15.6562 1.56251L17.8125 4.78126C14.4805 6.54688 11.9961 9.48048 11.1875 13H38.8125C38.0039 9.48048 35.5195 6.54688 32.1875 4.78126L34.3438 1.56251C34.6523 1.10548 34.5508 0.464851 34.0938 0.156257C33.6328 -0.152337 32.9961 -0.0195247 32.6875 0.437507L30.3125 3.93751C28.6641 3.33594 26.875 3.00001 25 3.00001C23.125 3.00001 21.3359 3.33594 19.6875 3.93751L17.3125 0.437507C17.082 0.0937565 16.6641 -0.0429623 16.2812 0.0312565ZM19.5 8.00001C20.3281 8.00001 21 8.67188 21 9.50001C21 10.332 20.3281 11 19.5 11C18.668 11 18 10.332 18 9.50001C18 8.67188 18.668 8.00001 19.5 8.00001ZM30.5 8.00001C31.332 8.00001 32 8.67188 32 9.50001C32 10.332 31.332 11 30.5 11C29.6719 11 29 10.332 29 9.50001C29 8.67188 29.6719 8.00001 30.5 8.00001ZM8 15C6.34375 15 5 16.3438 5 18V32C5 33.6563 6.34375 35 8 35C8.35156 35 8.6875 34.9258 9 34.8125V15.1875C8.6875 15.0742 8.35156 15 8 15ZM11 15V37C11 38.6524 12.3477 40 14 40H36C37.6523 40 39 38.6524 39 37V15H11ZM42 15C41.6484 15 41.3125 15.0742 41 15.1875V34.8125C41.3125 34.9219 41.6484 35 42 35C43.6562 35 45 33.6563 45 32V18C45 16.3438 43.6562 15 42 15ZM15 42V46C15 48.207 16.793 50 19 50C21.207 50 23 48.207 23 46V42H15ZM27 42V46C27 48.207 28.793 50 31 50C33.207 50 35 48.207 35 46V42H27Z" fill="white"/>
</g>
<defs>
<clipPath id="clip0_1_2">
<rect width="50" height="50" fill="white"/>
</clipPath>
</defs>
</svg>
