<svg width="48" height="48" viewBox="0 0 48 48" fill="none" xmlns="http://www.w3.org/2000/svg">
<path d="M31.8086 2.15625C31.6875 2.13672 31.5469 2.14844 31.3984 2.19922C29.3984 2.59766 27.1992 3.80078 25.8008 5.19922C24.6016 6.39844 23.6016 8.39844 23.6016 10.1992C23.6016 10.5977 24 11 24.3984 11C26.5976 10.8008 28.8008 9.59766 30.1992 8.19922C31.3984 6.59766 32.3984 4.80078 32.3984 3C32.3984 2.55078 32.1758 2.21094 31.8086 2.15625ZM32.3984 10.8008C28.7969 10.8008 27.1992 13 24.8008 13C22.1992 13 19.8008 11 16.8008 11C12.6016 11 6.19921 15 6.19921 24.1992C5.99999 32.5977 13.6016 42 18 42C20.6016 42 21.1992 40.3984 24.8008 40.3984C28.4023 40.3984 29.1992 42 31.8008 42C34.8008 42 37 38.8008 38.8008 36.1992C39.6016 34.8008 40.1992 34 40.8008 32.8008C41.1992 32 40.8008 31.1992 40 30.8008C34.8008 28.1992 33.8008 19.8008 39.6016 16.8008C40.6016 16.1992 40.8008 15 40 14.3984C37.8008 12.3984 34.5976 10.8008 32.3984 10.8008Z" fill="white"/>
</svg>
